<?xml version="1.0" encoding="utf-8"?>
<!-- Generator: Adobe Illustrator 16.0.0, SVG Export Plug-In . SVG Version: 6.00 Build 0)  -->
<!DOCTYPE svg PUBLIC "-//W3C//DTD SVG 1.1//EN" "http://www.w3.org/Graphics/SVG/1.1/DTD/svg11.dtd">
<svg version="1.1" xmlns="http://www.w3.org/2000/svg" xmlns:xlink="http://www.w3.org/1999/xlink" x="0px" y="0px" width="602px"
	 height="112.667px" viewBox="0 0 602 112.667" enable-background="new 0 0 602 112.667" xml:space="preserve">
<g id="Layer_3">
	<linearGradient id="SVGID_1_" gradientUnits="userSpaceOnUse" x1="300.9995" y1="0.9888" x2="300.9995" y2="113.6563">
		<stop  offset="0" style="stop-color:#B40000"/>
		<stop  offset="1" style="stop-color:#640000"/>
	</linearGradient>
	<rect fill="url(#SVGID_1_)" width="602" height="112.667"/>
</g>
<g id="Layer_2">
	<g>
		<path fill="#FFFFFF" d="M53.576,24.438c-0.048,1.681-0.097,3.013-0.144,3.996c-0.048,0.984-0.108,1.764-0.18,2.34
			c-0.072,0.576-0.18,1.008-0.324,1.296s-0.36,0.553-0.648,0.792c-3.456-1.872-7.776-2.808-12.96-2.808
			c-5.376,0-9.96,0.936-13.752,2.808c-0.336,2.016-0.588,4.597-0.756,7.74c-0.169,3.144-0.252,6.973-0.252,11.484
			c0,2.88,0.06,5.173,0.18,6.876c0.119,1.705,0.504,3,1.152,3.888c0.648,0.889,1.692,1.464,3.132,1.728
			c1.44,0.264,3.456,0.396,6.048,0.396c3.263,0,6.671-0.312,10.224-0.936c0.96-0.24,1.739-0.42,2.34-0.54
			c0.6-0.119,1.404-0.299,2.412-0.54c0.288,0,0.6,0.3,0.936,0.9c0.335,0.601,0.624,1.309,0.864,2.124
			c0.24,0.817,0.443,1.656,0.612,2.52c0.167,0.864,0.252,1.537,0.252,2.016c0,0.673-0.324,1.177-0.972,1.512
			c-0.648,0.336-1.717,0.588-3.204,0.756c-1.488,0.168-3.456,0.264-5.904,0.288c-2.448,0.025-5.472,0.036-9.072,0.036
			c-3.888,0-6.924-0.047-9.108-0.144c-2.185-0.096-3.541-0.288-4.068-0.576c-1.488-0.72-2.232-8.88-2.232-24.48
			c0-0.576,0.011-1.487,0.036-2.736c0.023-1.248,0.047-2.543,0.072-3.888c0.023-1.343,0.047-2.544,0.072-3.6
			c0.023-1.055,0.036-1.68,0.036-1.872c0.527-8.736,7.175-13.104,19.944-13.104C42.871,22.71,47.959,23.287,53.576,24.438z"/>
		<path fill="#FFFFFF" d="M93.535,38.55c0,2.448-0.144,5.256-0.432,8.424c-0.288,3.168-0.696,6.696-1.224,10.584h-3.384
			c-2.448,0-4.404,0.061-5.868,0.18c-1.464,0.121-2.196,0.444-2.196,0.972c0,0.625,0.24,1.584,0.72,2.88
			c0.479,1.296,1.104,2.749,1.872,4.356c0.767,1.609,1.62,3.252,2.556,4.932c0.936,1.681,1.883,3.229,2.844,4.644
			c0.959,1.415,1.859,2.592,2.7,3.528c0.839,0.936,1.548,1.451,2.124,1.548c0,1.729-3.216,3.863-9.648,6.408
			c-1.44-4.032-2.808-7.873-4.104-11.521c-1.296-3.647-2.592-6.863-3.888-9.648c-1.296-2.783-2.617-5.004-3.96-6.66
			c-1.344-1.656-2.784-2.484-4.32-2.484c-0.673,0-1.224,0.097-1.656,0.288c-0.432,0.192-0.769,0.565-1.008,1.116
			c-0.241,0.552-0.408,1.308-0.504,2.268c-0.097,0.961-0.144,2.185-0.144,3.672c0,6.433,0.864,9.96,2.592,10.584
			c-0.576,0.72-1.753,1.08-3.528,1.08c-1.249,0-2.496-0.048-3.744-0.144c-1.249-0.097-2.473-0.169-3.672-0.216
			c0.047-0.72,0.132-1.98,0.252-3.78c0.12-1.8,0.252-3.888,0.396-6.264s0.288-4.883,0.432-7.524
			c0.144-2.639,0.288-5.171,0.432-7.596c0.144-2.423,0.252-4.572,0.324-6.444c0.072-1.872,0.108-3.215,0.108-4.032
			c0-6.624-0.432-12.647-1.296-18.072c1.055-0.144,2.592-0.216,4.608-0.216c1.631,0,3.528,0.048,5.688,0.144
			c2.16,0.097,4.416,0.216,6.768,0.36c2.352,0.144,4.716,0.313,7.092,0.504c2.376,0.192,4.644,0.408,6.804,0.648
			C91.447,23.167,93.535,28.327,93.535,38.55z M87.271,41.574c0-4.511-0.432-8.208-1.296-11.088
			c-1.681-0.24-3.828-0.456-6.444-0.648c-2.617-0.191-5.652-0.288-9.108-0.288c-1.632,0-3,0.048-4.104,0.144
			c-1.105,0.097-1.969,0.216-2.592,0.36v18.288c1.392,0.432,2.544,0.769,3.456,1.008c0.911,0.241,2.004,0.408,3.276,0.504
			c1.271,0.097,2.916,0.156,4.932,0.18c2.016,0.024,4.799,0.036,8.352,0.036C86.094,50.07,87.271,47.239,87.271,41.574z"/>
		<path fill="#FFFFFF" d="M105.702,73.11c-1.105-0.096-2.221-0.18-3.348-0.252c-1.128-0.072-2.268-0.108-3.42-0.108h-1.44
			c-0.144-0.384-0.301-1.487-0.468-3.312c-0.169-1.824-0.324-4.056-0.468-6.696c-0.144-2.639-0.288-5.508-0.432-8.604
			c-0.144-3.096-0.265-6.108-0.36-9.036c-0.097-2.927-0.18-5.604-0.252-8.028c-0.072-2.423-0.108-4.259-0.108-5.508
			c0-1.631,0.276-2.855,0.828-3.672c0.551-0.816,1.211-1.392,1.98-1.728c0.767-0.335,1.559-0.528,2.376-0.576
			c0.816-0.047,1.512-0.119,2.088-0.216c-0.144,2.16-0.216,5.04-0.216,8.64c0,6.192,0.155,11.676,0.468,16.452
			c0.312,4.777,0.672,8.809,1.08,12.096c0.407,3.288,0.78,5.821,1.116,7.596C105.46,71.935,105.653,72.919,105.702,73.11z"/>
		<path fill="#FFFFFF" d="M163.013,78.294c-0.385-0.048-0.781-0.084-1.188-0.108c-0.408-0.025-0.804-0.036-1.188-0.036h-2.218
			c-1.046,0-2.057,0.023-3.031,0.072c-0.975,0.047-1.938,0.119-2.887,0.216c0-1.008,0.011-2.52,0.036-4.536
			c0.024-2.016,0.06-4.235,0.108-6.66c0.047-2.423,0.083-4.943,0.108-7.56c0.023-2.616,0.06-5.051,0.108-7.308
			c0.047-2.256,0.083-4.2,0.108-5.832c0.023-1.631,0.036-2.688,0.036-3.168c0-3.215-0.578-4.824-1.735-4.824
			c-0.29,0-0.531,0.072-0.723,0.216c-0.097,0.48-0.458,1.752-1.084,3.816c-0.627,2.064-1.386,4.525-2.277,7.38
			c-0.891,2.856-1.843,5.904-2.855,9.144c-1.013,3.24-1.964,6.289-2.855,9.144c-0.892,2.856-1.651,5.304-2.277,7.344
			c-0.626,2.04-0.988,3.3-1.084,3.78l-3.108,1.008c-0.048-0.864-0.432-2.365-1.152-4.5c-0.72-2.135-1.717-4.835-2.988-8.1
			c-1.272-3.263-2.797-7.067-4.572-11.412c-1.776-4.344-3.744-9.18-5.904-14.508c-1.296,1.776-2.016,6.048-2.16,12.816
			c-0.097,3.456-0.18,6.217-0.252,8.28c-0.072,2.064-0.108,3.504-0.108,4.32c0,2.592-0.108,4.909-0.324,6.948
			c-0.216,2.04-0.588,4.14-1.116,6.3c-0.432,0-1.08-0.108-1.944-0.324c-0.864-0.216-1.537-0.324-2.016-0.324
			c-0.817,0-1.92,0.191-3.312,0.576v-2.736c0-0.624,0.024-1.752,0.072-3.384c0.047-1.631,0.108-3.588,0.18-5.868
			c0.072-2.279,0.168-4.799,0.288-7.56c0.119-2.759,0.227-5.567,0.324-8.424c0.095-2.855,0.204-5.688,0.324-8.496
			c0.119-2.808,0.228-5.388,0.324-7.74c0.096-2.352,0.18-4.416,0.252-6.192c0.072-1.775,0.131-3.071,0.18-3.888
			c1.343-0.24,2.556-0.432,3.636-0.576s2.076-0.216,2.988-0.216c1.296,0,2.4,0.12,3.312,0.36c0.912,0.241,1.716,0.661,2.412,1.26
			c0.695,0.601,1.296,1.44,1.8,2.52c0.504,1.08,0.996,2.484,1.476,4.212c0.816,2.977,1.667,5.893,2.556,8.748
			c0.888,2.856,1.751,5.389,2.592,7.596c0.839,2.208,1.631,3.985,2.376,5.328c0.743,1.344,1.404,2.016,1.98,2.016
			c0.191,0,0.587-0.624,1.188-1.872c0.6-1.248,1.283-2.855,2.052-4.824c0.767-1.967,1.595-4.14,2.484-6.516
			c0.888-2.376,1.752-4.691,2.592-6.948c0.839-2.255,1.595-4.308,2.268-6.156c0.671-1.848,1.199-3.204,1.584-4.068l10.584-0.864
			c0.767,1.056,1.152,4.057,1.152,9c0,0.576-0.025,1.465-0.072,2.664c-0.049,1.2-0.084,2.473-0.108,3.816
			c-0.024,1.344-0.061,2.628-0.108,3.852c-0.048,1.224-0.072,2.124-0.072,2.7c0,3.504,0.299,7.693,0.9,12.564
			C161.273,65.635,162.053,71.479,163.013,78.294z"/>
		<path fill="#FFFFFF" d="M205.997,51.871c0,3.409-0.241,6.396-0.72,8.964c-0.48,2.568-1.404,4.716-2.772,6.444
			c-1.368,1.728-3.301,3.024-5.796,3.888c-2.497,0.864-5.737,1.296-9.72,1.296c-4.8,0-10.465-0.767-16.992-2.304
			c0.144-1.679,0.252-3.011,0.324-3.996c0.072-0.983,0.144-1.764,0.216-2.34c0.072-0.576,0.191-0.996,0.36-1.26
			c0.167-0.263,0.396-0.515,0.684-0.756c3.647,2.16,8.376,3.24,14.184,3.24c4.752,0,8.903-0.792,12.456-2.376
			c0.432-1.919,0.648-3.6,0.648-5.04c0-2.736-0.756-4.727-2.268-5.976c-1.512-1.248-4.068-1.872-7.668-1.872
			c-0.48,0-1.236,0.025-2.268,0.072c-1.033,0.048-2.124,0.108-3.276,0.18c-1.152,0.072-2.257,0.132-3.312,0.18
			c-1.056,0.048-1.825,0.072-2.304,0.072c-3.409,0-5.953-0.479-7.632-1.44c-0.241-0.144-0.48-0.659-0.72-1.548
			c-0.241-0.888-0.468-1.919-0.684-3.096c-0.216-1.176-0.396-2.388-0.54-3.636c-0.144-1.248-0.216-2.279-0.216-3.096
			c0-5.663,1.296-9.936,3.888-12.816c2.592-2.88,6.36-4.32,11.304-4.32c5.807,0,13.295,1.104,22.464,3.312
			c-0.048,1.056-0.12,2.088-0.216,3.096c-0.097,1.008-0.216,1.933-0.36,2.772c-0.144,0.84-0.3,1.548-0.468,2.124
			c-0.169,0.576-0.373,0.96-0.612,1.152c-5.281-3.12-11.617-4.68-19.008-4.68c-3.744,0-6.744,0.529-9,1.584
			c-0.432,1.872-0.648,3.528-0.648,4.968c0,2.736,0.78,4.741,2.34,6.012c1.56,1.272,4.14,1.908,7.74,1.908
			c0.479,0,1.235-0.024,2.268-0.072c1.032-0.047,2.111-0.108,3.24-0.18c1.127-0.072,2.208-0.132,3.24-0.18
			c1.032-0.047,1.811-0.072,2.34-0.072c2.063,0,3.719,0.108,4.968,0.324c1.248,0.216,2.207,0.673,2.88,1.368
			c0.671,0.696,1.116,1.692,1.332,2.988C205.889,48.054,205.997,49.759,205.997,51.871z"/>
		<path fill="#FFFFFF" d="M253.012,41.143c0,3.6-0.144,7.153-0.432,10.656c-0.288,3.504-0.696,7.056-1.224,10.656
			c0,0.144-0.133,0.624-0.396,1.44c-0.264,0.816-0.552,1.776-0.864,2.88c-0.313,1.105-0.601,2.268-0.863,3.492
			c-0.265,1.224-0.396,2.292-0.396,3.204c0,0.625,0.023,1.008,0.072,1.152c-3.841,1.631-8.544,2.448-14.112,2.448
			c-8.161,0-15.361-1.608-21.6-4.824c-1.584-10.847-2.376-18.695-2.376-23.544c0-10.368,2.711-19.631,8.136-27.792
			c1.008-0.047,2.016-0.083,3.024-0.108c1.008-0.023,2.016-0.036,3.024-0.036c3.312,0,6.383,0.084,9.216,0.252
			c2.832,0.168,5.544,0.372,8.136,0.612c0.479,0.048,1.127,0.18,1.944,0.396c0.815,0.216,1.667,0.432,2.556,0.648
			c0.888,0.216,1.716,0.432,2.484,0.648c0.768,0.216,1.344,0.349,1.729,0.396C252.365,28.47,253.012,34.279,253.012,41.143z
			 M244.301,39.054c0-4.896-0.241-8.039-0.72-9.432c-7.44-1.296-12.216-1.944-14.328-1.944c-0.96,0-1.884,0.048-2.772,0.144
			c-0.889,0.097-1.789,0.241-2.7,0.432c-3.36,8.881-5.04,17.136-5.04,24.768c0,6.577,1.584,11.113,4.752,13.608
			c3.312,0.336,5.879,0.588,7.704,0.756c1.824,0.169,2.976,0.252,3.456,0.252c2.927,0,4.896-0.432,5.904-1.296
			c0.479-0.383,0.936-1.487,1.368-3.312c0.432-1.823,0.828-4.043,1.188-6.66c0.36-2.616,0.648-5.447,0.864-8.496
			C244.193,44.827,244.301,41.887,244.301,39.054z"/>
		<path fill="#FFFFFF" d="M299.524,75.703c0,1.584-2.305,2.52-6.912,2.808c-1.537-1.92-3.288-4.044-5.256-6.372
			c-1.969-2.328-4.177-5.076-6.624-8.244c-1.488-2.016-2.905-3.996-4.248-5.94c-1.345-1.944-2.448-3.732-3.313-5.364
			c-1.344-2.495-2.797-4.596-4.355-6.3c-1.561-1.703-3.229-3.035-5.004-3.996c-0.625,1.2-0.937,3.049-0.937,5.544v3.528
			c0,0.529,0.012,1.044,0.036,1.548c0.023,0.504,0.06,0.997,0.108,1.476c0.047,0.672,0.131,1.668,0.252,2.988
			c0.119,1.321,0.263,2.82,0.432,4.5c0.168,1.681,0.348,3.433,0.54,5.256c0.191,1.825,0.371,3.553,0.54,5.184
			c0.168,1.632,0.312,3.083,0.432,4.356c0.119,1.271,0.204,2.196,0.252,2.772c-0.816-0.097-1.632-0.18-2.447-0.252
			c-0.817-0.072-1.656-0.108-2.521-0.108c-1.344,0-2.736,0.072-4.176,0.216c0-0.72-0.024-1.98-0.072-3.78s-0.107-3.935-0.18-6.408
			c-0.072-2.472-0.156-5.171-0.252-8.1c-0.097-2.927-0.192-5.892-0.288-8.892c-0.097-3-0.205-5.928-0.324-8.784
			c-0.12-2.855-0.229-5.459-0.324-7.812c-0.097-2.351-0.18-4.32-0.252-5.904c-0.071-1.584-0.133-2.616-0.18-3.096
			c1.343-0.24,2.651-0.419,3.924-0.54c1.271-0.119,2.508-0.18,3.708-0.18h0.937c0.671,1.393,1.415,2.772,2.231,4.14
			c0.815,1.368,1.68,2.749,2.592,4.14c0.145,0.241,0.6,0.889,1.368,1.944c0.768,1.057,1.607,2.221,2.521,3.492
			c0.911,1.272,1.787,2.473,2.628,3.6c0.839,1.128,1.403,1.884,1.691,2.268c1.775,2.352,3.673,4.62,5.688,6.804
			c2.016,2.185,4.176,4.356,6.479,6.516l1.513-0.432c0-2.639-0.181-5.627-0.54-8.964c-0.36-3.335-0.745-6.599-1.152-9.792
			c-0.408-3.192-0.792-6.12-1.152-8.784c-0.359-2.664-0.539-4.691-0.539-6.084c1.343-0.191,2.628-0.335,3.852-0.432
			c1.224-0.096,2.388-0.144,3.492-0.144h1.584c0.335,0.864,0.611,2.16,0.828,3.888c0.216,1.728,0.419,4.032,0.611,6.912
			c0.191,2.88,0.396,6.42,0.612,10.62c0.216,4.201,0.491,9.228,0.828,15.084c0.191,3.168,0.396,6,0.612,8.496
			C298.984,71.575,299.236,73.783,299.524,75.703z"/>
		<path fill="#FFFFFF" d="M363.675,34.95c-2.689-0.911-5.377-1.368-8.064-1.368c-0.961,0-2.052,0.072-3.276,0.216
			c-1.224,0.144-2.604,0.336-4.14,0.576c-1.152,9.648-1.728,19.344-1.728,29.088c0,3.024,0.071,5.88,0.216,8.568
			c0.144,2.688,0.335,5.28,0.576,7.776c-0.961-0.144-2.149-0.301-3.564-0.468c-1.416-0.168-3.085-0.349-5.004-0.54
			c0.239-2.16,0.42-4.489,0.54-6.984c0.119-2.495,0.18-5.184,0.18-8.064c0-0.528-0.036-1.548-0.107-3.06
			c-0.072-1.512-0.157-3.276-0.252-5.292c-0.098-2.016-0.217-4.164-0.36-6.444c-0.145-2.279-0.265-4.416-0.36-6.408
			c-0.097-1.991-0.18-3.731-0.252-5.22c-0.072-1.487-0.107-2.472-0.107-2.952c-0.288,0-0.781-0.011-1.477-0.036
			c-0.696-0.023-1.429-0.036-2.196-0.036c-0.72,0-1.429-0.011-2.123-0.036c-0.697-0.024-1.188-0.036-1.477-0.036
			c-3.072,0-6.145,0.288-9.216,0.864c0.384-1.055,0.576-2.088,0.576-3.096c0-1.487-0.288-3-0.864-4.536
			c0.047-0.047,1.199-0.144,3.456-0.288c2.256-0.144,5.292-0.288,9.108-0.432c3.815-0.144,8.243-0.275,13.283-0.396
			c5.04-0.119,10.416-0.204,16.128-0.252c0.048,0.288,0.12,0.756,0.217,1.404c0.096,0.648,0.18,1.308,0.252,1.98
			c0.071,0.673,0.131,1.332,0.18,1.98c0.047,0.648,0.072,1.116,0.072,1.404C363.891,33.631,363.819,34.327,363.675,34.95z"/>
		<path fill="#FFFFFF" d="M403.346,27.966c0.047-0.047,0.072-0.096,0.072-0.144c-2.16,3.36-4.104,6.397-5.832,9.108
			c-1.729,2.712-3.672,5.808-5.832,9.288c-2.16,3.481-4.297,7.033-6.408,10.656c-2.113,3.625-4.104,7.176-5.976,10.656
			c-1.872,3.481-3.385,6.564-4.536,9.252c-2.448-0.288-4.464-0.493-6.049-0.612c-1.584-0.12-2.784-0.18-3.6-0.18h-0.504
			c4.367-8.064,9.335-16.344,14.904-24.84c-0.192-0.432-0.601-1.26-1.225-2.484s-1.356-2.664-2.195-4.32
			c-0.841-1.656-1.741-3.467-2.7-5.436c-0.961-1.968-1.896-3.912-2.809-5.832c-0.912-1.919-1.74-3.744-2.483-5.472
			c-0.745-1.728-1.309-3.191-1.692-4.392c0.527,0.097,1.632,0.229,3.313,0.396c1.68,0.169,3.935,0.349,6.768,0.54
			c0.191,1.008,0.527,2.185,1.008,3.528c0.479,1.345,1.02,2.725,1.62,4.14c0.6,1.417,1.212,2.82,1.836,4.212
			c0.623,1.393,1.212,2.628,1.765,3.708c0.551,1.08,0.995,1.944,1.332,2.592c0.335,0.648,0.504,0.948,0.504,0.9
			c2.351-3.792,4.271-7.2,5.76-10.224c1.487-3.024,2.567-5.688,3.24-7.992c0.239,0.048,1.163,0.313,2.771,0.792
			C398.005,26.287,400.322,27.007,403.346,27.966z"/>
		<path fill="#FFFFFF" d="M443.305,38.55c0,2.448-0.144,5.256-0.432,8.424s-0.696,6.696-1.225,10.584h-3.384
			c-2.448,0-4.404,0.061-5.868,0.18c-1.465,0.121-2.195,0.444-2.195,0.972c0,0.625,0.239,1.584,0.72,2.88
			c0.479,1.296,1.104,2.749,1.872,4.356c0.767,1.609,1.62,3.252,2.556,4.932c0.937,1.681,1.884,3.229,2.844,4.644
			s1.86,2.592,2.7,3.528s1.548,1.451,2.124,1.548c0,1.729-3.216,3.863-9.647,6.408c-1.44-4.032-2.809-7.873-4.104-11.521
			c-1.296-3.647-2.592-6.863-3.888-9.648c-1.296-2.783-2.617-5.004-3.96-6.66c-1.345-1.656-2.784-2.484-4.32-2.484
			c-0.673,0-1.224,0.097-1.656,0.288c-0.432,0.192-0.769,0.565-1.008,1.116c-0.24,0.552-0.408,1.308-0.504,2.268
			c-0.097,0.961-0.144,2.185-0.144,3.672c0,6.433,0.863,9.96,2.592,10.584c-0.576,0.72-1.753,1.08-3.528,1.08
			c-1.249,0-2.496-0.048-3.744-0.144c-1.248-0.097-2.473-0.169-3.672-0.216c0.047-0.72,0.132-1.98,0.252-3.78
			c0.119-1.8,0.252-3.888,0.396-6.264c0.144-2.376,0.288-4.883,0.432-7.524c0.144-2.639,0.288-5.171,0.432-7.596
			c0.145-2.423,0.252-4.572,0.324-6.444s0.108-3.215,0.108-4.032c0-6.624-0.433-12.647-1.296-18.072
			c1.055-0.144,2.592-0.216,4.607-0.216c1.632,0,3.528,0.048,5.688,0.144c2.16,0.097,4.415,0.216,6.768,0.36
			c2.352,0.144,4.716,0.313,7.092,0.504c2.376,0.192,4.645,0.408,6.805,0.648C441.217,23.167,443.305,28.327,443.305,38.55z
			 M437.042,41.574c0-4.511-0.433-8.208-1.296-11.088c-1.681-0.24-3.829-0.456-6.444-0.648c-2.617-0.191-5.652-0.288-9.108-0.288
			c-1.632,0-3,0.048-4.104,0.144c-1.104,0.097-1.969,0.216-2.592,0.36v18.288c1.392,0.432,2.543,0.769,3.456,1.008
			c0.911,0.241,2.003,0.408,3.275,0.504c1.271,0.097,2.916,0.156,4.933,0.18c2.016,0.024,4.799,0.036,8.352,0.036
			C435.865,50.07,437.042,47.239,437.042,41.574z"/>
		<path fill="#FFFFFF" d="M486,71.886c-0.479,0.241-1.188,0.504-2.124,0.792c-0.936,0.288-1.896,0.553-2.88,0.792
			c-0.984,0.241-1.896,0.468-2.735,0.684c-0.841,0.216-1.404,0.372-1.692,0.468c-0.336-1.104-0.66-2.664-0.972-4.68
			c-0.313-2.016-1.021-4.488-2.124-7.416c-3.024-0.047-5.904-0.119-8.641-0.216c-2.735-0.096-5.425-0.263-8.063-0.504
			c-0.529,0.816-1.008,1.872-1.44,3.168c-0.432,1.296-0.816,2.617-1.151,3.96c-0.337,1.344-0.612,2.568-0.828,3.672
			c-0.216,1.104-0.349,1.872-0.396,2.304c-2.735-0.912-4.704-1.368-5.903-1.368c-0.817,0-1.417,0.097-1.801,0.288
			c0.048-0.288,0.217-1.104,0.504-2.448c0.288-1.343,0.66-3.024,1.116-5.04c0.456-2.016,0.96-4.271,1.513-6.768
			c0.551-2.495,1.115-5.04,1.691-7.632c0.576-2.592,1.152-5.123,1.729-7.596c0.575-2.471,1.104-4.716,1.584-6.732
			c0.479-2.016,0.875-3.683,1.188-5.004c0.312-1.319,0.516-2.124,0.612-2.412c0.288-1.104,0.636-2.328,1.044-3.672
			c0.407-1.343,0.875-2.832,1.404-4.464c2.735,0.288,5.147,0.576,7.235,0.864c2.088,0.288,3.876,0.553,5.364,0.792
			c0,2.448,0.096,4.752,0.288,6.912c0.191,2.16,0.527,4.201,1.008,6.12c0.479,1.92,1.116,3.924,1.908,6.012
			c0.792,2.088,1.691,4.356,2.7,6.804c0.047,0.144,0.312,0.781,0.792,1.908c0.479,1.128,1.067,2.496,1.764,4.104
			c0.695,1.608,1.451,3.348,2.268,5.22s1.584,3.612,2.305,5.22c0.72,1.608,1.332,2.964,1.836,4.068
			C485.604,71.191,485.903,71.791,486,71.886z M462.959,33.006c-0.432,1.201-0.863,2.592-1.296,4.176
			c-0.432,1.584-0.853,3.252-1.26,5.004c-0.408,1.752-0.805,3.576-1.188,5.472c-0.385,1.897-0.769,3.757-1.152,5.58
			c0.72,1.008,2.111,1.512,4.176,1.512c1.584,0,2.868-0.06,3.853-0.18c0.982-0.119,1.764-0.324,2.34-0.612s0.972-0.672,1.188-1.152
			c0.216-0.479,0.324-1.08,0.324-1.8c0-0.815-0.205-1.788-0.612-2.916c-0.408-1.127-0.936-2.423-1.584-3.888
			c-0.647-1.464-1.393-3.12-2.231-4.968C464.675,37.387,463.824,35.311,462.959,33.006z"/>
		<path fill="#FFFFFF" d="M531.937,75.703c0,1.584-2.305,2.52-6.912,2.808c-1.537-1.92-3.288-4.044-5.256-6.372
			c-1.969-2.328-4.177-5.076-6.624-8.244c-1.488-2.016-2.905-3.996-4.248-5.94c-1.345-1.944-2.448-3.732-3.313-5.364
			c-1.344-2.495-2.797-4.596-4.355-6.3c-1.561-1.703-3.229-3.035-5.004-3.996c-0.625,1.2-0.937,3.049-0.937,5.544v3.528
			c0,0.529,0.012,1.044,0.036,1.548c0.023,0.504,0.06,0.997,0.108,1.476c0.047,0.672,0.131,1.668,0.252,2.988
			c0.119,1.321,0.263,2.82,0.432,4.5c0.168,1.681,0.348,3.433,0.54,5.256c0.191,1.825,0.371,3.553,0.54,5.184
			c0.168,1.632,0.312,3.083,0.432,4.356c0.119,1.271,0.204,2.196,0.252,2.772c-0.816-0.097-1.632-0.18-2.447-0.252
			c-0.817-0.072-1.656-0.108-2.521-0.108c-1.344,0-2.736,0.072-4.176,0.216c0-0.72-0.024-1.98-0.072-3.78s-0.107-3.935-0.18-6.408
			c-0.072-2.472-0.156-5.171-0.252-8.1c-0.097-2.927-0.192-5.892-0.288-8.892c-0.097-3-0.205-5.928-0.324-8.784
			c-0.12-2.855-0.229-5.459-0.324-7.812c-0.097-2.351-0.18-4.32-0.252-5.904c-0.071-1.584-0.133-2.616-0.18-3.096
			c1.343-0.24,2.651-0.419,3.924-0.54c1.271-0.119,2.508-0.18,3.708-0.18h0.937c0.671,1.393,1.415,2.772,2.231,4.14
			c0.815,1.368,1.68,2.749,2.592,4.14c0.145,0.241,0.6,0.889,1.368,1.944c0.768,1.057,1.607,2.221,2.521,3.492
			c0.911,1.272,1.787,2.473,2.628,3.6c0.839,1.128,1.403,1.884,1.691,2.268c1.775,2.352,3.673,4.62,5.688,6.804
			c2.016,2.185,4.176,4.356,6.479,6.516l1.513-0.432c0-2.639-0.181-5.627-0.54-8.964c-0.36-3.335-0.745-6.599-1.152-9.792
			c-0.408-3.192-0.792-6.12-1.152-8.784c-0.359-2.664-0.539-4.691-0.539-6.084c1.343-0.191,2.628-0.335,3.852-0.432
			c1.224-0.096,2.388-0.144,3.492-0.144h1.584c0.335,0.864,0.611,2.16,0.828,3.888c0.216,1.728,0.419,4.032,0.611,6.912
			c0.191,2.88,0.396,6.42,0.612,10.62c0.216,4.201,0.491,9.228,0.828,15.084c0.191,3.168,0.396,6,0.612,8.496
			C531.397,71.575,531.649,73.783,531.937,75.703z"/>
		<path fill="#FFFFFF" d="M574.92,26.886c0.239,1.345,0.396,2.677,0.468,3.996c0.072,1.321,0.108,2.34,0.108,3.06
			c0,0.769-0.072,1.393-0.216,1.872c-0.241-0.047-0.792-0.191-1.656-0.432c-0.864-0.24-1.849-0.504-2.952-0.792
			c-1.104-0.288-2.196-0.551-3.276-0.792c-1.079-0.24-1.933-0.36-2.556-0.36c-0.673,0-1.38,0.061-2.124,0.18
			c-0.744,0.12-1.452,0.3-2.124,0.54c-1.681,0.576-2.616,4.104-2.808,10.584c0,0.385-0.013,1.465-0.036,3.24
			c-0.024,1.776-0.049,3.9-0.072,6.372c-0.024,2.473-0.061,5.137-0.107,7.992c-0.049,2.856-0.085,5.544-0.108,8.064
			c-0.024,2.52-0.049,4.691-0.072,6.516c-0.024,1.824-0.036,2.976-0.036,3.456c-1.248-0.288-2.88-0.564-4.896-0.828
			c-2.016-0.264-4.201-0.396-6.552-0.396c0.239-0.96,0.491-2.473,0.756-4.536c0.263-2.063,0.563-4.752,0.899-8.064
			c0.576-6.095,1.044-11.088,1.404-14.976c0.36-3.888,0.636-7.02,0.828-9.396c0.191-2.376,0.324-4.151,0.396-5.328
			c0.072-1.176,0.108-2.099,0.108-2.772c-1.584-0.528-2.929-0.792-4.032-0.792c-1.439,0-3.204,0.192-5.292,0.576
			c-2.088,0.385-4.212,0.936-6.372,1.656c0.191-1.44,0.324-2.844,0.396-4.212s0.107-2.724,0.107-4.068
			c1.632-0.096,3.349-0.18,5.148-0.252c1.8-0.072,3.708-0.108,5.724-0.108c1.632,0,3.252,0.013,4.86,0.036
			c1.607,0.025,3.168,0.061,4.68,0.108c1.513,0.048,2.928,0.084,4.248,0.108c1.32,0.024,2.484,0.036,3.492,0.036
			c2.352,0,4.487-0.036,6.408-0.108C571.583,26.995,573.336,26.935,574.92,26.886z"/>
	</g>
</g>
</svg>
